<?xml version="1.0" encoding="UTF-8"?>
<svg xmlns="http://www.w3.org/2000/svg"
     xmlns:xlink="http://www.w3.org/1999/xlink"
     version="1.2"
     width="100mm" height="86.6mm" viewBox="0 0 100 86.6"
     stroke="none"
     fill="#000000"
     stroke-width="0.3"
     font-size="3.88"
>
<g stroke="#000000" fill="#000000" fill-opacity="0.000" stroke-width="0.2" id="fig-a15b3b46ba874a20915ffb83538665e3-element-1">
  <path d="M100,86.6 L 96.88 86.6 98.44 83.89 z"/>
  <path d="M96.88,86.6 L 93.75 86.6 95.31 83.89 z"/>
  <path d="M98.44,83.89 L 95.31 83.89 96.88 81.19 z"/>
  <path d="M93.75,86.6 L 90.63 86.6 92.19 83.89 z"/>
  <path d="M90.63,86.6 L 87.5 86.6 89.06 83.89 z"/>
  <path d="M92.19,83.89 L 89.06 83.89 90.63 81.19 z"/>
  <path d="M96.88,81.19 L 93.75 81.19 95.31 78.48 z"/>
  <path d="M93.75,81.19 L 90.63 81.19 92.19 78.48 z"/>
  <path d="M95.31,78.48 L 92.19 78.48 93.75 75.77 z"/>
  <path d="M87.5,86.6 L 84.38 86.6 85.94 83.89 z"/>
  <path d="M84.38,86.6 L 81.25 86.6 82.81 83.89 z"/>
  <path d="M85.94,83.89 L 82.81 83.89 84.38 81.19 z"/>
  <path d="M81.25,86.6 L 78.13 86.6 79.69 83.89 z"/>
  <path d="M78.13,86.6 L 75 86.6 76.56 83.89 z"/>
  <path d="M79.69,83.89 L 76.56 83.89 78.13 81.19 z"/>
  <path d="M84.38,81.19 L 81.25 81.19 82.81 78.48 z"/>
  <path d="M81.25,81.19 L 78.13 81.19 79.69 78.48 z"/>
  <path d="M82.81,78.48 L 79.69 78.48 81.25 75.77 z"/>
  <path d="M93.75,75.77 L 90.63 75.77 92.19 73.07 z"/>
  <path d="M90.63,75.77 L 87.5 75.77 89.06 73.07 z"/>
  <path d="M92.19,73.07 L 89.06 73.07 90.63 70.36 z"/>
  <path d="M87.5,75.77 L 84.38 75.77 85.94 73.07 z"/>
  <path d="M84.38,75.77 L 81.25 75.77 82.81 73.07 z"/>
  <path d="M85.94,73.07 L 82.81 73.07 84.38 70.36 z"/>
  <path d="M90.63,70.36 L 87.5 70.36 89.06 67.66 z"/>
  <path d="M87.5,70.36 L 84.38 70.36 85.94 67.66 z"/>
  <path d="M89.06,67.66 L 85.94 67.66 87.5 64.95 z"/>
  <path d="M75,86.6 L 71.88 86.6 73.44 83.89 z"/>
  <path d="M71.88,86.6 L 68.75 86.6 70.31 83.89 z"/>
  <path d="M73.44,83.89 L 70.31 83.89 71.88 81.19 z"/>
  <path d="M68.75,86.6 L 65.63 86.6 67.19 83.89 z"/>
  <path d="M65.63,86.6 L 62.5 86.6 64.06 83.89 z"/>
  <path d="M67.19,83.89 L 64.06 83.89 65.63 81.19 z"/>
  <path d="M71.88,81.19 L 68.75 81.19 70.31 78.48 z"/>
  <path d="M68.75,81.19 L 65.63 81.19 67.19 78.48 z"/>
  <path d="M70.31,78.48 L 67.19 78.48 68.75 75.77 z"/>
  <path d="M62.5,86.6 L 59.38 86.6 60.94 83.89 z"/>
  <path d="M59.38,86.6 L 56.25 86.6 57.81 83.89 z"/>
  <path d="M60.94,83.89 L 57.81 83.89 59.38 81.19 z"/>
  <path d="M56.25,86.6 L 53.13 86.6 54.69 83.89 z"/>
  <path d="M53.13,86.6 L 50 86.6 51.56 83.89 z"/>
  <path d="M54.69,83.89 L 51.56 83.89 53.13 81.19 z"/>
  <path d="M59.38,81.19 L 56.25 81.19 57.81 78.48 z"/>
  <path d="M56.25,81.19 L 53.13 81.19 54.69 78.48 z"/>
  <path d="M57.81,78.48 L 54.69 78.48 56.25 75.77 z"/>
  <path d="M68.75,75.77 L 65.63 75.77 67.19 73.07 z"/>
  <path d="M65.63,75.77 L 62.5 75.77 64.06 73.07 z"/>
  <path d="M67.19,73.07 L 64.06 73.07 65.63 70.36 z"/>
  <path d="M62.5,75.77 L 59.38 75.77 60.94 73.07 z"/>
  <path d="M59.38,75.77 L 56.25 75.77 57.81 73.07 z"/>
  <path d="M60.94,73.07 L 57.81 73.07 59.38 70.36 z"/>
  <path d="M65.63,70.36 L 62.5 70.36 64.06 67.66 z"/>
  <path d="M62.5,70.36 L 59.38 70.36 60.94 67.66 z"/>
  <path d="M64.06,67.66 L 60.94 67.66 62.5 64.95 z"/>
  <path d="M87.5,64.95 L 84.38 64.95 85.94 62.24 z"/>
  <path d="M84.38,64.95 L 81.25 64.95 82.81 62.24 z"/>
  <path d="M85.94,62.24 L 82.81 62.24 84.38 59.54 z"/>
  <path d="M81.25,64.95 L 78.13 64.95 79.69 62.24 z"/>
  <path d="M78.13,64.95 L 75 64.95 76.56 62.24 z"/>
  <path d="M79.69,62.24 L 76.56 62.24 78.13 59.54 z"/>
  <path d="M84.38,59.54 L 81.25 59.54 82.81 56.83 z"/>
  <path d="M81.25,59.54 L 78.13 59.54 79.69 56.83 z"/>
  <path d="M82.81,56.83 L 79.69 56.83 81.25 54.13 z"/>
  <path d="M75,64.95 L 71.88 64.95 73.44 62.24 z"/>
  <path d="M71.88,64.95 L 68.75 64.95 70.31 62.24 z"/>
  <path d="M73.44,62.24 L 70.31 62.24 71.88 59.54 z"/>
  <path d="M68.75,64.95 L 65.63 64.95 67.19 62.24 z"/>
  <path d="M65.63,64.95 L 62.5 64.95 64.06 62.24 z"/>
  <path d="M67.19,62.24 L 64.06 62.24 65.63 59.54 z"/>
  <path d="M71.88,59.54 L 68.75 59.54 70.31 56.83 z"/>
  <path d="M68.75,59.54 L 65.63 59.54 67.19 56.83 z"/>
  <path d="M70.31,56.83 L 67.19 56.83 68.75 54.13 z"/>
  <path d="M81.25,54.12 L 78.13 54.12 79.69 51.42 z"/>
  <path d="M78.13,54.12 L 75 54.12 76.56 51.42 z"/>
  <path d="M79.69,51.42 L 76.56 51.42 78.13 48.71 z"/>
  <path d="M75,54.12 L 71.88 54.12 73.44 51.42 z"/>
  <path d="M71.88,54.12 L 68.75 54.12 70.31 51.42 z"/>
  <path d="M73.44,51.42 L 70.31 51.42 71.88 48.71 z"/>
  <path d="M78.13,48.71 L 75 48.71 76.56 46.01 z"/>
  <path d="M75,48.71 L 71.88 48.71 73.44 46.01 z"/>
  <path d="M76.56,46.01 L 73.44 46.01 75 43.3 z"/>
  <path d="M50,86.6 L 46.88 86.6 48.44 83.89 z"/>
  <path d="M46.88,86.6 L 43.75 86.6 45.31 83.89 z"/>
  <path d="M48.44,83.89 L 45.31 83.89 46.88 81.19 z"/>
  <path d="M43.75,86.6 L 40.63 86.6 42.19 83.89 z"/>
  <path d="M40.63,86.6 L 37.5 86.6 39.06 83.89 z"/>
  <path d="M42.19,83.89 L 39.06 83.89 40.63 81.19 z"/>
  <path d="M46.88,81.19 L 43.75 81.19 45.31 78.48 z"/>
  <path d="M43.75,81.19 L 40.63 81.19 42.19 78.48 z"/>
  <path d="M45.31,78.48 L 42.19 78.48 43.75 75.77 z"/>
  <path d="M37.5,86.6 L 34.38 86.6 35.94 83.89 z"/>
  <path d="M34.38,86.6 L 31.25 86.6 32.81 83.89 z"/>
  <path d="M35.94,83.89 L 32.81 83.89 34.38 81.19 z"/>
  <path d="M31.25,86.6 L 28.13 86.6 29.69 83.89 z"/>
  <path d="M28.13,86.6 L 25 86.6 26.56 83.89 z"/>
  <path d="M29.69,83.89 L 26.56 83.89 28.13 81.19 z"/>
  <path d="M34.38,81.19 L 31.25 81.19 32.81 78.48 z"/>
  <path d="M31.25,81.19 L 28.13 81.19 29.69 78.48 z"/>
  <path d="M32.81,78.48 L 29.69 78.48 31.25 75.77 z"/>
  <path d="M43.75,75.77 L 40.63 75.77 42.19 73.07 z"/>
  <path d="M40.63,75.77 L 37.5 75.77 39.06 73.07 z"/>
  <path d="M42.19,73.07 L 39.06 73.07 40.63 70.36 z"/>
  <path d="M37.5,75.77 L 34.38 75.77 35.94 73.07 z"/>
  <path d="M34.38,75.77 L 31.25 75.77 32.81 73.07 z"/>
  <path d="M35.94,73.07 L 32.81 73.07 34.38 70.36 z"/>
  <path d="M40.63,70.36 L 37.5 70.36 39.06 67.66 z"/>
  <path d="M37.5,70.36 L 34.38 70.36 35.94 67.66 z"/>
  <path d="M39.06,67.66 L 35.94 67.66 37.5 64.95 z"/>
  <path d="M25,86.6 L 21.88 86.6 23.44 83.89 z"/>
  <path d="M21.88,86.6 L 18.75 86.6 20.31 83.89 z"/>
  <path d="M23.44,83.89 L 20.31 83.89 21.88 81.19 z"/>
  <path d="M18.75,86.6 L 15.63 86.6 17.19 83.89 z"/>
  <path d="M15.63,86.6 L 12.5 86.6 14.06 83.89 z"/>
  <path d="M17.19,83.89 L 14.06 83.89 15.63 81.19 z"/>
  <path d="M21.88,81.19 L 18.75 81.19 20.31 78.48 z"/>
  <path d="M18.75,81.19 L 15.63 81.19 17.19 78.48 z"/>
  <path d="M20.31,78.48 L 17.19 78.48 18.75 75.77 z"/>
  <path d="M12.5,86.6 L 9.38 86.6 10.94 83.89 z"/>
  <path d="M9.38,86.6 L 6.25 86.6 7.81 83.89 z"/>
  <path d="M10.94,83.89 L 7.81 83.89 9.38 81.19 z"/>
  <path d="M6.25,86.6 L 3.13 86.6 4.69 83.89 z"/>
  <path d="M3.13,86.6 L 0 86.6 1.56 83.89 z"/>
  <path d="M4.69,83.89 L 1.56 83.89 3.13 81.19 z"/>
  <path d="M9.38,81.19 L 6.25 81.19 7.81 78.48 z"/>
  <path d="M6.25,81.19 L 3.13 81.19 4.69 78.48 z"/>
  <path d="M7.81,78.48 L 4.69 78.48 6.25 75.77 z"/>
  <path d="M18.75,75.77 L 15.63 75.77 17.19 73.07 z"/>
  <path d="M15.63,75.77 L 12.5 75.77 14.06 73.07 z"/>
  <path d="M17.19,73.07 L 14.06 73.07 15.63 70.36 z"/>
  <path d="M12.5,75.77 L 9.38 75.77 10.94 73.07 z"/>
  <path d="M9.38,75.77 L 6.25 75.77 7.81 73.07 z"/>
  <path d="M10.94,73.07 L 7.81 73.07 9.38 70.36 z"/>
  <path d="M15.63,70.36 L 12.5 70.36 14.06 67.66 z"/>
  <path d="M12.5,70.36 L 9.38 70.36 10.94 67.66 z"/>
  <path d="M14.06,67.66 L 10.94 67.66 12.5 64.95 z"/>
  <path d="M37.5,64.95 L 34.38 64.95 35.94 62.24 z"/>
  <path d="M34.38,64.95 L 31.25 64.95 32.81 62.24 z"/>
  <path d="M35.94,62.24 L 32.81 62.24 34.38 59.54 z"/>
  <path d="M31.25,64.95 L 28.13 64.95 29.69 62.24 z"/>
  <path d="M28.13,64.95 L 25 64.95 26.56 62.24 z"/>
  <path d="M29.69,62.24 L 26.56 62.24 28.13 59.54 z"/>
  <path d="M34.38,59.54 L 31.25 59.54 32.81 56.83 z"/>
  <path d="M31.25,59.54 L 28.13 59.54 29.69 56.83 z"/>
  <path d="M32.81,56.83 L 29.69 56.83 31.25 54.13 z"/>
  <path d="M25,64.95 L 21.88 64.95 23.44 62.24 z"/>
  <path d="M21.88,64.95 L 18.75 64.95 20.31 62.24 z"/>
  <path d="M23.44,62.24 L 20.31 62.24 21.88 59.54 z"/>
  <path d="M18.75,64.95 L 15.63 64.95 17.19 62.24 z"/>
  <path d="M15.63,64.95 L 12.5 64.95 14.06 62.24 z"/>
  <path d="M17.19,62.24 L 14.06 62.24 15.63 59.54 z"/>
  <path d="M21.88,59.54 L 18.75 59.54 20.31 56.83 z"/>
  <path d="M18.75,59.54 L 15.63 59.54 17.19 56.83 z"/>
  <path d="M20.31,56.83 L 17.19 56.83 18.75 54.13 z"/>
  <path d="M31.25,54.12 L 28.13 54.12 29.69 51.42 z"/>
  <path d="M28.13,54.12 L 25 54.12 26.56 51.42 z"/>
  <path d="M29.69,51.42 L 26.56 51.42 28.13 48.71 z"/>
  <path d="M25,54.12 L 21.88 54.12 23.44 51.42 z"/>
  <path d="M21.88,54.12 L 18.75 54.12 20.31 51.42 z"/>
  <path d="M23.44,51.42 L 20.31 51.42 21.88 48.71 z"/>
  <path d="M28.13,48.71 L 25 48.71 26.56 46.01 z"/>
  <path d="M25,48.71 L 21.88 48.71 23.44 46.01 z"/>
  <path d="M26.56,46.01 L 23.44 46.01 25 43.3 z"/>
  <path d="M75,43.3 L 71.88 43.3 73.44 40.59 z"/>
  <path d="M71.88,43.3 L 68.75 43.3 70.31 40.59 z"/>
  <path d="M73.44,40.59 L 70.31 40.59 71.88 37.89 z"/>
  <path d="M68.75,43.3 L 65.63 43.3 67.19 40.59 z"/>
  <path d="M65.63,43.3 L 62.5 43.3 64.06 40.59 z"/>
  <path d="M67.19,40.59 L 64.06 40.59 65.63 37.89 z"/>
  <path d="M71.88,37.89 L 68.75 37.89 70.31 35.18 z"/>
  <path d="M68.75,37.89 L 65.63 37.89 67.19 35.18 z"/>
  <path d="M70.31,35.18 L 67.19 35.18 68.75 32.47 z"/>
  <path d="M62.5,43.3 L 59.38 43.3 60.94 40.59 z"/>
  <path d="M59.38,43.3 L 56.25 43.3 57.81 40.59 z"/>
  <path d="M60.94,40.59 L 57.81 40.59 59.38 37.89 z"/>
  <path d="M56.25,43.3 L 53.13 43.3 54.69 40.59 z"/>
  <path d="M53.13,43.3 L 50 43.3 51.56 40.59 z"/>
  <path d="M54.69,40.59 L 51.56 40.59 53.13 37.89 z"/>
  <path d="M59.38,37.89 L 56.25 37.89 57.81 35.18 z"/>
  <path d="M56.25,37.89 L 53.13 37.89 54.69 35.18 z"/>
  <path d="M57.81,35.18 L 54.69 35.18 56.25 32.47 z"/>
  <path d="M68.75,32.48 L 65.63 32.48 67.19 29.77 z"/>
  <path d="M65.63,32.48 L 62.5 32.48 64.06 29.77 z"/>
  <path d="M67.19,29.77 L 64.06 29.77 65.63 27.06 z"/>
  <path d="M62.5,32.48 L 59.38 32.48 60.94 29.77 z"/>
  <path d="M59.38,32.48 L 56.25 32.48 57.81 29.77 z"/>
  <path d="M60.94,29.77 L 57.81 29.77 59.38 27.06 z"/>
  <path d="M65.63,27.06 L 62.5 27.06 64.06 24.36 z"/>
  <path d="M62.5,27.06 L 59.38 27.06 60.94 24.36 z"/>
  <path d="M64.06,24.36 L 60.94 24.36 62.5 21.65 z"/>
  <path d="M50,43.3 L 46.88 43.3 48.44 40.59 z"/>
  <path d="M46.88,43.3 L 43.75 43.3 45.31 40.59 z"/>
  <path d="M48.44,40.59 L 45.31 40.59 46.88 37.89 z"/>
  <path d="M43.75,43.3 L 40.63 43.3 42.19 40.59 z"/>
  <path d="M40.63,43.3 L 37.5 43.3 39.06 40.59 z"/>
  <path d="M42.19,40.59 L 39.06 40.59 40.63 37.89 z"/>
  <path d="M46.88,37.89 L 43.75 37.89 45.31 35.18 z"/>
  <path d="M43.75,37.89 L 40.63 37.89 42.19 35.18 z"/>
  <path d="M45.31,35.18 L 42.19 35.18 43.75 32.47 z"/>
  <path d="M37.5,43.3 L 34.38 43.3 35.94 40.59 z"/>
  <path d="M34.38,43.3 L 31.25 43.3 32.81 40.59 z"/>
  <path d="M35.94,40.59 L 32.81 40.59 34.38 37.89 z"/>
  <path d="M31.25,43.3 L 28.13 43.3 29.69 40.59 z"/>
  <path d="M28.13,43.3 L 25 43.3 26.56 40.59 z"/>
  <path d="M29.69,40.59 L 26.56 40.59 28.13 37.89 z"/>
  <path d="M34.38,37.89 L 31.25 37.89 32.81 35.18 z"/>
  <path d="M31.25,37.89 L 28.13 37.89 29.69 35.18 z"/>
  <path d="M32.81,35.18 L 29.69 35.18 31.25 32.47 z"/>
  <path d="M43.75,32.48 L 40.63 32.48 42.19 29.77 z"/>
  <path d="M40.63,32.48 L 37.5 32.48 39.06 29.77 z"/>
  <path d="M42.19,29.77 L 39.06 29.77 40.63 27.06 z"/>
  <path d="M37.5,32.48 L 34.38 32.48 35.94 29.77 z"/>
  <path d="M34.38,32.48 L 31.25 32.48 32.81 29.77 z"/>
  <path d="M35.94,29.77 L 32.81 29.77 34.38 27.06 z"/>
  <path d="M40.63,27.06 L 37.5 27.06 39.06 24.36 z"/>
  <path d="M37.5,27.06 L 34.38 27.06 35.94 24.36 z"/>
  <path d="M39.06,24.36 L 35.94 24.36 37.5 21.65 z"/>
  <path d="M62.5,21.65 L 59.38 21.65 60.94 18.94 z"/>
  <path d="M59.38,21.65 L 56.25 21.65 57.81 18.94 z"/>
  <path d="M60.94,18.94 L 57.81 18.94 59.38 16.24 z"/>
  <path d="M56.25,21.65 L 53.13 21.65 54.69 18.94 z"/>
  <path d="M53.13,21.65 L 50 21.65 51.56 18.94 z"/>
  <path d="M54.69,18.94 L 51.56 18.94 53.13 16.24 z"/>
  <path d="M59.38,16.24 L 56.25 16.24 57.81 13.53 z"/>
  <path d="M56.25,16.24 L 53.13 16.24 54.69 13.53 z"/>
  <path d="M57.81,13.53 L 54.69 13.53 56.25 10.83 z"/>
  <path d="M50,21.65 L 46.88 21.65 48.44 18.94 z"/>
  <path d="M46.88,21.65 L 43.75 21.65 45.31 18.94 z"/>
  <path d="M48.44,18.94 L 45.31 18.94 46.88 16.24 z"/>
  <path d="M43.75,21.65 L 40.63 21.65 42.19 18.94 z"/>
  <path d="M40.63,21.65 L 37.5 21.65 39.06 18.94 z"/>
  <path d="M42.19,18.94 L 39.06 18.94 40.63 16.24 z"/>
  <path d="M46.88,16.24 L 43.75 16.24 45.31 13.53 z"/>
  <path d="M43.75,16.24 L 40.63 16.24 42.19 13.53 z"/>
  <path d="M45.31,13.53 L 42.19 13.53 43.75 10.83 z"/>
  <path d="M56.25,10.83 L 53.13 10.83 54.69 8.12 z"/>
  <path d="M53.13,10.83 L 50 10.83 51.56 8.12 z"/>
  <path d="M54.69,8.12 L 51.56 8.12 53.13 5.41 z"/>
  <path d="M50,10.83 L 46.88 10.83 48.44 8.12 z"/>
  <path d="M46.88,10.83 L 43.75 10.83 45.31 8.12 z"/>
  <path d="M48.44,8.12 L 45.31 8.12 46.88 5.41 z"/>
  <path d="M53.13,5.41 L 50 5.41 51.56 2.71 z"/>
  <path d="M50,5.41 L 46.88 5.41 48.44 2.71 z"/>
  <path d="M51.56,2.71 L 48.44 2.71 50 0 z"/>
</g>
</svg>
