<?xml version="1.0" encoding="UTF-8"?>
<svg xmlns="http://www.w3.org/2000/svg"
     xmlns:xlink="http://www.w3.org/1999/xlink"
     version="1.2"
     width="100mm" height="86.6mm" viewBox="0 0 100 86.6"
     stroke="none"
     fill="#000000"
     stroke-width="0.3"
     font-size="3.88"
>
<g stroke="#000000" fill="#000000" fill-opacity="0.000" stroke-width="0.2" id="fig-750093beaff64d66a49e6585d2839b70-element-1">
  <path d="M100,86.6 L 87.5 86.6 93.75 75.77 z"/>
  <path d="M87.5,86.6 L 75 86.6 81.25 75.77 z"/>
  <path d="M93.75,75.77 L 81.25 75.77 87.5 64.95 z"/>
  <path d="M75,86.6 L 62.5 86.6 68.75 75.77 z"/>
  <path d="M62.5,86.6 L 50 86.6 56.25 75.77 z"/>
  <path d="M68.75,75.77 L 56.25 75.77 62.5 64.95 z"/>
  <path d="M87.5,64.95 L 75 64.95 81.25 54.13 z"/>
  <path d="M75,64.95 L 62.5 64.95 68.75 54.13 z"/>
  <path d="M81.25,54.13 L 68.75 54.13 75 43.3 z"/>
  <path d="M50,86.6 L 37.5 86.6 43.75 75.77 z"/>
  <path d="M37.5,86.6 L 25 86.6 31.25 75.77 z"/>
  <path d="M43.75,75.77 L 31.25 75.77 37.5 64.95 z"/>
  <path d="M25,86.6 L 12.5 86.6 18.75 75.77 z"/>
  <path d="M12.5,86.6 L 0 86.6 6.25 75.77 z"/>
  <path d="M18.75,75.77 L 6.25 75.77 12.5 64.95 z"/>
  <path d="M37.5,64.95 L 25 64.95 31.25 54.13 z"/>
  <path d="M25,64.95 L 12.5 64.95 18.75 54.13 z"/>
  <path d="M31.25,54.13 L 18.75 54.13 25 43.3 z"/>
  <path d="M75,43.3 L 62.5 43.3 68.75 32.47 z"/>
  <path d="M62.5,43.3 L 50 43.3 56.25 32.47 z"/>
  <path d="M68.75,32.47 L 56.25 32.47 62.5 21.65 z"/>
  <path d="M50,43.3 L 37.5 43.3 43.75 32.47 z"/>
  <path d="M37.5,43.3 L 25 43.3 31.25 32.47 z"/>
  <path d="M43.75,32.47 L 31.25 32.47 37.5 21.65 z"/>
  <path d="M62.5,21.65 L 50 21.65 56.25 10.83 z"/>
  <path d="M50,21.65 L 37.5 21.65 43.75 10.83 z"/>
  <path d="M56.25,10.83 L 43.75 10.83 50 0 z"/>
</g>
</svg>
